<?xml version="1.0" encoding="utf-8"?>
<!-- Generator: Adobe Illustrator 16.0.0, SVG Export Plug-In . SVG Version: 6.00 Build 0)  -->
<!DOCTYPE svg PUBLIC "-//W3C//DTD SVG 1.1//EN" "http://www.w3.org/Graphics/SVG/1.1/DTD/svg11.dtd">
<svg version="1.1" id="Logo" xmlns="http://www.w3.org/2000/svg" xmlns:xlink="http://www.w3.org/1999/xlink" x="0px" y="0px"
	 width="100px" height="90.873px" viewBox="0 0 100 90.873" enable-background="new 0 0 100 90.873" xml:space="preserve">
<g>
	<g>
		<defs>
			<path id="SVGID_1_" d="M12.751,56.065c-5.86-5.861-5.86-15.397,0-21.258l22.986-22.985l22.984,22.985
				c2.839,2.838,4.403,6.614,4.403,10.629c0,4.014-1.564,7.79-4.403,10.629L35.737,79.051L12.751,56.065z M6.841,28.896
				c-9.121,9.121-9.121,23.96,0,33.078l28.896,28.898l28.896-28.898v0.001c4.418-4.416,6.853-10.291,6.853-16.539
				c0-6.249-2.435-12.123-6.853-16.54L35.737,0L6.841,28.896z"/>
		</defs>
		<clipPath id="SVGID_2_">
			<use xlink:href="#SVGID_1_"  overflow="visible"/>
		</clipPath>
		
			<linearGradient id="SVGID_3_" gradientUnits="userSpaceOnUse" x1="-367.5415" y1="343.0313" x2="-366.1577" y2="343.0313" gradientTransform="matrix(51.6702 0 0 -51.6702 18990.9258 17769.8984)">
			<stop  offset="0" style="stop-color:#29255C"/>
			<stop  offset="1" style="stop-color:#D51C53"/>
		</linearGradient>
		<rect x="-2.28" clip-path="url(#SVGID_2_)" fill="url(#SVGID_3_)" width="73.766" height="90.873"/>
	</g>
	<g>
		<defs>
			<path id="SVGID_4_" d="M44.102,50.007c0-8.29,6.742-15.033,15.032-15.033h32.507v32.507c0,8.29-6.743,15.032-15.032,15.032
				H44.102V50.007z M59.134,26.616c-12.897,0-23.392,10.493-23.392,23.391v40.866h40.867C89.506,90.873,100,80.378,100,67.481
				V26.616H59.134z"/>
		</defs>
		<clipPath id="SVGID_5_">
			<use xlink:href="#SVGID_4_"  overflow="visible"/>
		</clipPath>
		
			<linearGradient id="SVGID_6_" gradientUnits="userSpaceOnUse" x1="-367.0591" y1="342.9551" x2="-365.6758" y2="342.9551" gradientTransform="matrix(46.4472 0 0 -46.4472 17084.6406 15988.0283)">
			<stop  offset="0" style="stop-color:#29255C"/>
			<stop  offset="1" style="stop-color:#D51C53"/>
		</linearGradient>
		<rect x="35.742" y="26.616" clip-path="url(#SVGID_5_)" fill="url(#SVGID_6_)" width="64.258" height="64.257"/>
	</g>
</g>
<g>
</g>
<g>
</g>
<g>
</g>
<g>
</g>
<g>
</g>
<g>
</g>
</svg>
